PathFileType	4	(X/Y/Z)	Patient4_TMGait_0pt4_02_left_20.trc.trc
DataRate	CameraRate	NumFrames	NumMarkers	Units	OrigDataRate	OrigDataStartFrame	OrigNumFrames
71.428571428572	71.428571428572	6	33	mm	71.428571428572	1	       141
Frame#	Time	Sacral			L.Shoulder			Chest			R.Shoulder			Neck			R.ASIS			L.ASIS			R.Thigh.Superior			R.Thigh.Lateral			R.Thigh.Inferior			R.Patella			L.Thigh.Superior			L.Thigh.Lateral			L.Thigh.Inferior			L.Patella			L.Shank.Superior			L.Shank.Lateral			L.Shank.Inferior			R.Shank.Superior			R.Shank.Lateral			R.Shank.Inferior			R.Heel			R.Midfoot.Superior			R.Midfoot.Lateral			R.Toe			L.Heel			L.Midfoot.Lateral			L.Midfoot.Superior			L.Toe			L.Elbow			L.Wrist			R.Elbow			R.Wrist			
		X1	Y1	Z1	X2	Y2	Z2	X3	Y3	Z3	X4	Y4	Z4	X5	Y5	Z5	X6	Y6	Z6	X7	Y7	Z7	X8	Y8	Z8	X9	Y9	Z9	X10	Y10	Z10	X11	Y11	Z11	X12	Y12	Z12	X13	Y13	Z13	X14	Y14	Z14	X15	Y15	Z15	X16	Y16	Z16	X17	Y17	Z17	X18	Y18	Z18	X19	Y19	Z19	X20	Y20	Z20	X21	Y21	Z21	X22	Y22	Z22	X23	Y23	Z23	X24	Y24	Z24	X25	Y25	Z25	X26	Y26	Z26	X27	Y27	Z27	X28	Y28	Z28	X29	Y29	Z29	X30	Y30	Z30	X31	Y31	Z31	X32	Y32	Z32	X33	Y33	Z33	

1	26.780000000000	885.382629835769	1000.624045241767	546.227163099911	1042.054995574181	1434.015465197887	356.320542448332	1155.093966145370	1370.925369841038	512.488841964960	1078.704475538799	1441.614404740343	690.742428682158	1031.472888895058	1496.846208592868	513.994792222564	1122.259306746428	948.692049669356	656.036166575424	1095.300035133528	965.229190380646	382.078189610951	1158.705016154376	744.181481825400	623.674528813710	1077.739521657910	633.579702664943	684.191514618950	1152.451684268351	582.573213481957	602.605500834652	1150.292317635916	494.995014761306	606.903207024003	1183.097820127292	782.510915537171	403.313404406498	1135.309269269089	655.355244807613	322.590447842791	1242.235321622116	595.517200250536	374.523630509736	1259.187272890307	510.857568370446	365.991182435865	1205.472194724909	437.600963318488	357.814474213524	1074.909637837227	366.790811618476	310.666715451296	1094.049521871815	235.069422742543	360.193222816453	1122.175587801660	405.854111551175	612.218945277138	1050.478843506900	300.909917777158	673.063934096341	1092.194294014531	207.498000123061	605.523195857958	957.239070008974	42.816047608710	572.662108245157	1129.032884688842	98.126790107494	605.611860344422	1042.442216606618	36.782471571235	645.548016900313	1250.123262023787	46.167230341341	627.806598016498	926.261286724811	121.607952537959	400.569378041754	988.576883867638	100.817924549882	313.908962400678	1089.375092924609	134.344820163200	333.537907459702	1192.137422899081	50.816686030594	289.775006911923	1017.740220294412	1077.616702574014	250.408138059589	1108.109892894662	832.634224897655	224.270809247302	1113.039841254026	1100.302409917907	828.476513509012	1294.190548957224	911.608829809995	819.367658229388	
2	26.794000000000	884.830972466423	1001.150946763607	547.604548382239	1040.558086352825	1434.666212844578	357.467121544899	1154.696813440978	1371.101282593560	512.606645109765	1079.936208798024	1441.584790644528	691.580257248584	1031.324169829161	1497.158106726222	515.162619195562	1121.653182197698	948.721116708381	655.934825750405	1093.764584189762	965.718883014483	382.013581869077	1155.931453326659	743.942042730533	623.695851653621	1074.051143773438	633.902134081253	684.734537899055	1148.000949922190	582.246332800875	603.232978473201	1145.140198428270	494.928167897075	607.848173986330	1181.390613807842	783.566804417386	402.379583658363	1133.872948507292	656.331399515127	321.325620064196	1241.090767169944	597.018499726599	373.599212249322	1259.600251098575	514.295382962057	364.390033940705	1209.817534037543	440.513834679257	355.390217674888	1084.447785609065	362.566692006973	308.184609208930	1112.443214850767	232.557620092637	356.038094635373	1116.766476546801	405.772780128704	612.915761923496	1044.630986296711	301.052351428972	673.411187028781	1086.278830071092	207.583143378801	605.978976916814	951.285129205148	42.909900989213	572.732814473852	1123.256886822190	98.139378180067	605.804738269889	1036.489417186901	36.766874980198	645.583848064471	1244.193881573572	46.016582380698	627.875669535463	953.839890143017	109.077883630261	396.700972838654	1015.986382180454	92.932052971918	309.265250093838	1114.116464483027	132.281181521208	328.346455855864	1220.690186661057	56.081578401688	282.862117305542	1008.864614165694	1079.096597824283	251.767496963286	1087.908059390868	831.236165295119	227.019969567145	1122.052790251066	1101.939463612593	829.418086791194	1312.459228715122	925.410790490917	815.672761121524	
3	26.808000000000	884.280431943972	1001.642889940225	548.911804491741	1039.115002964726	1435.282371413532	358.565278835322	1154.312419976990	1371.236177574297	512.698293406205	1081.132474826085	1441.506436639105	692.375318619350	1031.184975504445	1497.435425346856	516.281495152199	1121.048137379036	948.731922844720	655.826486071652	1092.256949360470	966.140393666931	381.943412368818	1153.192975907600	743.670907406500	623.728451143547	1070.383928211548	634.196688757614	685.243165346279	1143.567999624221	581.906299796661	603.811198915304	1140.001283675945	494.846709670157	608.705911998796	1179.578333317155	784.452743815243	401.459328002607	1132.309162579880	657.217864621414	320.001751639923	1239.763990379114	598.364375713791	372.651555564179	1259.809360058960	517.618570398587	362.813870462546	1213.983579196434	443.399684610095	353.018447280641	1094.018935922491	358.401684842334	305.589683342540	1130.755289078265	230.266600865614	351.919486785339	1111.389792197050	405.679352035177	613.544445634634	1038.845622494230	301.174673452607	673.725972537100	1080.410471887208	207.648637707911	606.386336656800	945.346277728002	42.992682939410	572.796840994291	1117.482049803010	98.137489341276	605.966721601913	1030.551939900654	36.754532887890	645.617381866915	1238.276869828229	45.873813928608	627.940407779620	981.404437373537	96.991895637064	392.677382027607	1043.502657639184	85.389047548994	304.606234849937	1138.870801201605	130.482387265822	323.268766374363	1249.217595676955	61.558129336516	276.369207311997	999.973163802940	1080.603336303199	253.102008952323	1067.932088607745	829.984316014606	229.800949633655	1130.946125945355	1103.528260303676	830.252398605443	1330.440333167876	939.305320430269	811.853962174343	
4	26.822000000000	883.734688732622	1002.072554758108	550.082476052007	1037.774216727222	1435.830898786192	359.556928130127	1153.954319310562	1371.299199205614	512.728826053138	1082.263562583983	1441.350439375263	693.073688297455	1031.065524299956	1497.650364221630	517.293320637807	1120.453598952247	948.707793195436	655.690617223032	1090.800860015324	966.446546878502	381.848600669833	1150.535470026899	743.345022607059	623.750742204654	1066.791305977068	634.438565904103	685.673060821326	1139.200053568196	581.544059516765	604.277567824148	1134.924663918936	494.737416197114	609.387822423261	1177.615976516395	785.056668899751	400.560262602884	1130.549292222150	657.943677474059	318.598531446337	1238.155345285295	599.440372569104	371.667423608739	1259.682971110315	520.721393891954	361.294448200258	1217.805110787964	446.213727201020	350.756759689994	1103.524309051805	354.402608957030	302.855274131317	1148.705355163979	228.393731470644	347.916483158479	1106.107961117340	405.564382510048	614.037685340203	1033.210914173358	301.261580154247	673.976063517105	1074.658940967982	207.678842767991	606.700183297210	939.466994695013	43.055947947308	572.848644237080	1111.744702473053	98.113496575825	606.077992257050	1024.674661121737	36.747987700406	645.645502014990	1232.415119249906	45.745869006747	627.998234285520	1008.611963822590	85.821558325927	388.469573559539	1070.852938918612	78.538944095616	299.997209976240	1163.333164557258	129.178377193592	318.446776586081	1277.333643583221	67.358883604897	270.647297142356	991.142272708746	1082.144149121523	254.384323902266	1048.526446757052	829.005855080104	232.598421474833	1139.545159622433	1105.022826820503	830.865891220727	1347.708020402069	953.292159968530	807.815456940202	
5	26.836000000000	883.193427696942	1002.421886752018	551.066570856922	1036.571820875112	1436.285757329772	360.388902847800	1153.633170818022	1371.268865112487	512.664216913985	1083.310193056953	1441.100532119688	693.626433382827	1030.974335519222	1497.783477093055	518.145235561030	1119.873231207021	948.631739004587	655.504264273206	1089.407753144374	966.607683537833	381.706114664072	1147.989130397751	742.945355537690	623.728375996345	1063.315384886688	634.607613223105	685.981228347257	1134.927781774818	581.150510438665	604.571104291835	1129.943437546718	494.589389400157	609.816872019150	1175.475329301114	785.304660995559	399.681670618141	1128.538159379356	658.458985025513	317.104541752123	1236.203585930513	600.169715214527	370.620241697486	1259.128144404226	523.528667259215	359.851068649478	1221.158797188917	448.929695884472	348.648260202338	1112.881395963785	350.671179702590	299.972155283564	1166.064641148264	227.105473745253	344.098895523730	1100.960756716452	405.418874058687	614.336695995639	1027.785837704553	301.302087757728	674.134555326188	1069.060872807976	207.661377110479	606.882186109462	933.665013371735	43.094033719951	572.883801527506	1106.055590887240	98.062614565329	606.123862580520	1018.875043780505	36.748931511085	645.665419937835	1226.625235519231	45.636369234577	628.046645960134	1035.171196822739	75.951971930876	384.075529634046	1097.806141634502	72.667561514708	295.510283957122	1187.249858232052	128.558845047367	314.004167563190	1304.723484355770	73.576680849482	265.989655906386	982.421030585448	1083.726513457557	255.603451970853	1029.922321406718	828.397491580784	235.389787108297	1147.722032645195	1106.391169888097	831.154910160299	1363.926169309650	967.414937544192	803.460432402678	
6	26.850000000000	882.653477949496	1002.684030422050	551.833909695987	1035.528446102421	1436.630184732284	361.016426766119	1153.355985906567	1371.135925948750	512.473654286337	1084.264816669285	1440.756187483753	693.992631446322	1030.917377798223	1497.825725251317	518.793337483488	1119.308041764323	948.489541358009	655.242776575762	1088.076374490647	966.614984720019	381.490771128479	1145.569427253955	742.460136002180	623.615400006964	1059.989275502032	634.690550891357	686.129696748527	1130.769858949788	580.718243310277	604.638183348340	1125.080564287955	494.395284699317	609.935762876103	1173.156303479667	785.172749380716	398.814953436753	1126.250380226729	658.740529954584	315.523639991386	1233.901617232915	600.522713901576	369.477597402142	1258.107350752815	525.999301237422	358.492075178341	1223.972792024251	451.535211666518	346.720565786800	1122.006858039403	347.299367777505	296.961826671638	1182.638156529303	226.515917733978	340.528640265724	1095.969439171032	405.235446875766	614.397541544712	1022.602626255754	301.291106601977	674.182592991343	1063.625588419840	207.588759000192	606.905287029099	927.938922093497	43.104996535667	572.899574748227	1100.408655851377	97.984065334904	606.097198436633	1013.151014327702	36.758074372601	645.675162083453	1220.905464834989	45.545486607253	628.083616729623	1060.807667552324	67.652697116836	379.538542371753	1124.123814594345	67.971108473027	291.229272817934	1210.382377244047	128.747367742127	310.040066777367	1331.104053625632	80.254263143553	262.594600780812	973.846420691919	1085.353322291451	256.762323939665	1012.250888555095	828.214984564672	238.140248253016	1155.393864619028	1107.617616651662	831.036310039311	1378.849568817186	981.730792147451	798.708649159730	
